<?xml version="1.0" encoding="UTF-8"?>
<svg width="26px" height="28px" viewBox="0 0 26 28" version="1.1" xmlns="http://www.w3.org/2000/svg" xmlns:xlink="http://www.w3.org/1999/xlink">
    <!-- Generator: sketchtool 48.1 (47250) - http://www.bohemiancoding.com/sketch -->
    <title>BA29B6A9-EC68-4D98-BFE4-D978F56B299D</title>
    <desc>Created with sketchtool.</desc>
    <defs></defs>
    <g id="Task_Default" stroke="none" stroke-width="1" fill="none" fill-rule="evenodd" transform="translate(-1146.000000, -16.000000)">
        <g id="Header" fill="#666666">
            <g id="Group-18" transform="translate(1126.000000, 0.000000)">
                <g id="Group-21" transform="translate(19.000000, 16.000000)">
                    <path d="M14.250017,26.500003 C14.250017,26.3593778 14.1406419,26.2500027 14.0000167,26.2500027 C12.7656402,26.2500027 11.750014,25.2343765 11.750014,24 C11.750014,23.8593748 11.6406389,23.7499997 11.5000137,23.7499997 C11.3593885,23.7499997 11.2500134,23.8593748 11.2500134,24 C11.2500134,25.5156268 12.4843899,26.7500033 14.0000167,26.7500033 C14.1406419,26.7500033 14.250017,26.6406281 14.250017,26.500003 Z M3.84375458,21.9999976 L24.1562788,21.9999976 C21.3594005,18.8437439 20.0000238,14.5624887 20.0000238,8.99998212 C20.0000238,6.98435472 18.0937716,3.99997616 14.0000167,3.99997616 C9.90626181,3.99997616 8.00000954,6.98435472 8.00000954,8.99998212 C8.00000954,14.5624887 6.64063292,18.8437439 3.84375458,21.9999976 Z M27.0000322,21.9999976 C27.0000322,23.0937489 26.0937811,24 25.0000298,24 L18.0000215,24 C18.0000215,26.2031276 16.2031443,28.0000048 14.0000167,28.0000048 C11.7968891,28.0000048 10.0000119,26.2031276 10.0000119,24 L3.00000358,24 C1.90625227,24 1.00000119,23.0937489 1.00000119,21.9999976 C3.31250395,20.0468703 6.00000715,16.5468661 6.00000715,8.99998212 C6.00000715,5.99997854 8.48438511,2.71872463 12.6250151,2.1093489 C12.54689,1.92184868 12.5000149,1.71872344 12.5000149,1.49997318 C12.5000149,0.671847191 13.1718907,-2.86102295e-05 14.0000167,-2.86102295e-05 C14.8281427,-2.86102295e-05 15.5000185,0.671847191 15.5000185,1.49997318 C15.5000185,1.71872344 15.4531434,1.92184868 15.3750183,2.1093489 C19.5156483,2.71872463 22.0000262,5.99997854 22.0000262,8.99998212 C22.0000262,16.5468661 24.6875294,20.0468703 27.0000322,21.9999976 Z" id="bell-o---FontAwesome"></path>
                </g>
            </g>
        </g>
    </g>
</svg>