<svg xmlns="http://www.w3.org/2000/svg" width="16" height="16" viewBox="0 0 16 16">
    <path fill="#999" fill-rule="nonzero" d="M8 2C4.69 2 2 4.69 2 8s2.69 6 6 6 6-2.69 6-6-2.69-6-6-6zm3.562 9.246a1.59 1.59 0 0 0-.82-.72L9.49 9.983a.925.925 0 0 1-.582-.796l-.025-.227c.581-.442.973-1.301.973-2.21 0-1.314-.834-2.224-1.857-2.224-1.023 0-1.857.91-1.857 2.223 0 .91.392 1.756.973 2.211l-.025.227a.94.94 0 0 1-.582.796l-1.25.543a1.64 1.64 0 0 0-.821.72A4.801 4.801 0 0 1 3.175 8a4.82 4.82 0 0 1 4.812-4.813A4.82 4.82 0 0 1 12.8 8a4.78 4.78 0 0 1-1.238 3.246z"/>
</svg>
