<svg xmlns="http://www.w3.org/2000/svg" width="16" height="16" viewBox="0 0 16 16">
    <path fill="#39C2D7" fill-rule="evenodd" d="M6.286 4.714h3.428v-.857H6.286v.857zM14 9v3.214c0 .59-.482 1.072-1.071 1.072H3.07c-.589 0-1.071-.482-1.071-1.072V9h4.5v1.071c0 .235.194.429.429.429H9.07a.432.432 0 0 0 .429-.429V9H14zM8.857 9v.857H7.143V9h1.714zM14 5.786v2.571H2V5.786c0-.59.482-1.072 1.071-1.072H5.43V3.643c0-.355.288-.643.642-.643H9.93c.354 0 .642.288.642.643v1.071h2.358c.589 0 1.071.482 1.071 1.072z"/>
</svg>
