<svg xmlns="http://www.w3.org/2000/svg" width="16" height="16" viewBox="0 0 16 16">
    <path fill="#999" fill-rule="nonzero" d="M11.093 6.035l.182-1.642a2.183 2.183 0 0 0-1.552-2.306A2.223 2.223 0 0 0 9.073 2H6.685a2.3 2.3 0 0 0-.952.188 2.184 2.184 0 0 0-1.28 2.216l.182 1.631a4.846 4.846 0 0 0 .073 7.324A2.693 2.693 0 0 0 6.454 14h2.827c.578 0 1.152-.171 1.604-.53a4.846 4.846 0 0 0 1.841-3.805 4.846 4.846 0 0 0-1.633-3.63zm-1.42-1.81l-.099.892a4.842 4.842 0 0 0-1.71-.316c-.604 0-1.179.115-1.712.316l-.098-.882a.563.563 0 0 1 .145-.437.563.563 0 0 1 .421-.187h2.486c.22 0 .359.117.422.187.063.07.166.22.146.428z"/>
</svg>
