<?xml version="1.0" encoding="UTF-8"?>
<svg width="16px" height="16px" viewBox="0 0 16 16" version="1.1" xmlns="http://www.w3.org/2000/svg" xmlns:xlink="http://www.w3.org/1999/xlink">
    <!-- Generator: sketchtool 48.1 (47250) - http://www.bohemiancoding.com/sketch -->
    <title>096F433F-B0FB-44DE-B56B-E25FEE946774</title>
    <desc>Created with sketchtool.</desc>
    <defs></defs>
    <g id="StatusBar" stroke="none" stroke-width="1" fill="none" fill-rule="evenodd" transform="translate(-312.000000, 0.000000)">
        <g fill="#999999" fill-rule="nonzero" id="Author">
            <g transform="translate(312.000000, 0.000000)">
                <g id="Group-10">
                    <path d="M8,2 C4.69052632,2 2,4.69052632 2,8 C2,11.3094737 4.69052632,14 8,14 C11.3094737,14 14,11.3094737 14,8 C14,4.69052632 11.3094737,2 8,2 Z M11.5621053,11.2463158 C11.3852632,10.9305263 11.1073684,10.6652632 10.7410526,10.5263158 L9.49052632,9.98315789 C9.16210526,9.85684211 8.93473684,9.54105263 8.90947368,9.18736842 L8.88421053,8.96 C9.46526316,8.51789474 9.85684211,7.65894737 9.85684211,6.74947368 C9.85684211,5.43578947 9.02315789,4.52631579 8,4.52631579 C6.97684211,4.52631579 6.14315789,5.43578947 6.14315789,6.74947368 C6.14315789,7.65894737 6.53473684,8.50526316 7.11578947,8.96 L7.09052632,9.18736842 C7.06526316,9.54105263 6.83789474,9.84421053 6.50947368,9.98315789 L5.25894737,10.5263158 C4.90526316,10.6652632 4.61473684,10.9305263 4.43789474,11.2463158 C3.65473684,10.3873684 3.17473684,9.25052632 3.17473684,8 C3.17473684,5.34736842 5.33473684,3.18736842 7.98736842,3.18736842 C10.64,3.18736842 12.8,5.34736842 12.8,8 C12.8126316,9.25052632 12.3326316,10.3873684 11.5621053,11.2463158 Z" id="Shape"></path>
                </g>
            </g>
        </g>
    </g>
</svg>