<?xml version="1.0" encoding="UTF-8"?>
<svg width="16px" height="16px" viewBox="0 0 16 16" version="1.1" xmlns="http://www.w3.org/2000/svg" xmlns:xlink="http://www.w3.org/1999/xlink">
    <!-- Generator: sketchtool 48.1 (47250) - http://www.bohemiancoding.com/sketch -->
    <title>F5D2C168-6745-4C35-9C9F-EAE315D4B38F</title>
    <desc>Created with sketchtool.</desc>
    <defs></defs>
    <g id="StatusBar" stroke="none" stroke-width="1" fill="none" fill-rule="evenodd">
        <g fill="#999999" fill-rule="nonzero" id="Difficulty">
            <g>
                <g id="Group">
                    <path d="M11.0925333,6.0352 L11.2752,4.39346667 C11.3728,3.40346667 10.7829333,2.412 9.7232,2.08733333 C9.51373333,2.02333333 9.29293333,2 9.07386667,2 L6.68426667,2 C6.358,2 6.02946667,2.05266667 5.73226667,2.1876 C4.8452,2.59026667 4.36186667,3.4868 4.45253333,4.4036 L4.634,6.03533333 C3.63373333,6.92613333 3,8.21986667 3,9.66453333 C3,11.1446667 3.66266667,12.4678667 4.70653333,13.3588 C5.19346667,13.7741333 5.81426667,14 6.45413333,14 L9.28093333,14 C9.85866667,14 10.4325333,13.8288 10.8852,13.4696 C12.0064,12.5796 12.7264,11.2073333 12.7264,9.66453333 C12.7265333,8.21973333 12.0928,6.926 11.0925333,6.0352 Z M9.6736,4.2256 L9.5744,5.11693333 C9.04146667,4.91626667 8.46653333,4.80133333 7.86333333,4.80133333 C7.26026667,4.80133333 6.68533333,4.91626667 6.1524,5.11693333 L6.05426667,4.23533333 C6.03266667,4.01693333 6.1356,3.8672 6.1988,3.7976 C6.262,3.72773333 6.4008,3.6108 6.62013333,3.6108 L9.10613333,3.6108 C9.3256,3.6108 9.46453333,3.72786667 9.52786667,3.7976 C9.59106667,3.86733333 9.69413333,4.01706667 9.6736,4.2256 Z" id="Shape"></path>
                </g>
            </g>
        </g>
    </g>
</svg>