<?xml version="1.0" encoding="UTF-8"?>
<svg width="16px" height="16px" viewBox="0 0 16 16" version="1.1" xmlns="http://www.w3.org/2000/svg" xmlns:xlink="http://www.w3.org/1999/xlink">
    <!-- Generator: sketchtool 48.1 (47250) - http://www.bohemiancoding.com/sketch -->
    <title>8E99917F-D3B2-48F7-BD36-9D763A9B7A0C</title>
    <desc>Created with sketchtool.</desc>
    <defs></defs>
    <g id="StatusBar" stroke="none" stroke-width="1" fill="none" fill-rule="evenodd" transform="translate(-79.000000, 0.000000)">
        <g fill="#999999" fill-rule="nonzero" id="Staisfacted">
            <g transform="translate(79.000000, 0.000000)">
                <g id="Group-8">
                    <path d="M14.3521078,9.09866003 C14.3521078,8.77941567 14.2251813,8.48934595 14.0191144,8.27623692 C14.3749109,8.07167908 14.6151826,7.68754628 14.6151826,7.24841761 C14.6150149,6.59534156 14.2399363,6.15570987 13.4307591,6.15570987 L10.8865291,6.15570987 C10.880493,5.30344143 10.8865291,3.77210804 10.8865291,2.94314578 C10.8865291,2.06757116 10.155151,2 9.98345652,2 C9.81595383,2 9.68584164,2.04963043 9.66136176,2.05952298 C9.60167111,2.08400285 9.55304671,2.12960919 9.52521343,2.18795847 C9.46719949,2.30918414 8.1089019,5.15589152 7.99170032,5.41712194 C7.87349271,5.68120276 7.69442077,5.81835711 7.6942531,5.81852478 C7.68888765,5.8223812 7.68368987,5.82657296 7.67849208,5.83093239 C7.66138971,5.84535204 5.98183571,7.27826294 5.78532605,7.4357054 C5.52258659,7.64613171 5.3534072,7.91641633 5.3534072,7.94659699 L5.3534072,12.927748 C5.3534072,13.1250961 5.62285347,13.5231455 6.03196915,13.6183823 C6.20684933,13.6591262 8.16071204,13.983233 8.33173581,13.9998323 L12.3787953,14 C13.0318713,13.9834006 13.563051,13.4522209 13.563051,12.7991449 C13.563051,12.502536 13.4533946,12.23091 13.272646,12.0229988 C13.6768992,11.8343696 13.9577471,11.4239126 13.9577471,10.9490701 C13.9577471,10.6522936 13.8480907,10.3808353 13.667342,10.1727564 C14.0712599,9.98395954 14.3521078,9.57333482 14.3521078,9.09866003 Z M4.68272576,7.32940239 L2.33534072,7.32940239 C2.18024564,7.2931856 2,7.48868924 2,7.64411966 L2,13.3293186 C2,13.4844136 2.18024564,13.5939024 2.33534072,13.6646593 L4.68272576,13.6646593 C4.83798851,13.5939024 5.06417583,13.4679819 5.01806648,13.3128869 L5.01806648,7.64411966 C5.06417583,7.48868924 4.83798851,7.2931856 4.68272576,7.32940239 Z" id="Shape"></path>
                </g>
            </g>
        </g>
    </g>
</svg>