<?xml version="1.0" encoding="UTF-8"?>
<svg width="16px" height="16px" viewBox="0 0 16 16" version="1.1" xmlns="http://www.w3.org/2000/svg" xmlns:xlink="http://www.w3.org/1999/xlink">
    <!-- Generator: sketchtool 48.1 (47250) - http://www.bohemiancoding.com/sketch -->
    <title>284CC361-3716-446E-9893-73E0ADA6C33F</title>
    <desc>Created with sketchtool.</desc>
    <defs></defs>
    <g id="StatusBar" stroke="none" stroke-width="1" fill="none" fill-rule="evenodd" transform="translate(-190.000000, 0.000000)">
        <g fill="#999999" fill-rule="nonzero" id="Solved">
            <g transform="translate(190.000000, 0.000000)">
                <g id="Group">
                    <path d="M8,14 C11.3069767,14 14,11.3069767 14,8 C14,4.69302326 11.3069767,2 8,2 C4.69302326,2 2,4.69302326 2,8 C2,11.3069767 4.69302326,14 8,14 Z M8,3.11627907 C10.6930233,3.11627907 12.8837209,5.30697674 12.8837209,8 C12.8837209,10.6930233 10.6930233,12.8837209 8,12.8837209 C5.30697674,12.8837209 3.11627907,10.6930233 3.11627907,8 C3.11627907,5.30697674 5.30697674,3.11627907 8,3.11627907 Z" id="Shape"></path>
                    <path d="M6.61860465,10.1348837 C6.85581395,10.372093 7.23255814,10.372093 7.46976744,10.1348837 L10.7627907,6.84186047 C11,6.60465116 11,6.22790698 10.7627907,5.99069767 L10.455814,5.68372093 C10.2186047,5.44651163 9.84186047,5.44651163 9.60465116,5.68372093 L7.20465116,8.08372093 C7.12093023,8.16744186 6.98139535,8.16744186 6.88372093,8.08372093 L6.36744186,7.56744186 C6.13023256,7.33023256 5.75348837,7.33023256 5.51627907,7.56744186 L5.20930233,7.8744186 C4.97209302,8.11162791 4.97209302,8.48837209 5.20930233,8.7255814 L6.61860465,10.1348837 Z" id="Shape"></path>
                </g>
            </g>
        </g>
    </g>
</svg>