<svg xmlns="http://www.w3.org/2000/svg" width="16" height="16" viewBox="0 0 16 16">
    <g fill="#999" fill-rule="nonzero">
        <path d="M8 14c3.307 0 6-2.693 6-6s-2.693-6-6-6-6 2.693-6 6 2.693 6 6 6zM8 3.116A4.89 4.89 0 0 1 12.884 8 4.89 4.89 0 0 1 8 12.884 4.89 4.89 0 0 1 3.116 8 4.89 4.89 0 0 1 8 3.116z"/>
        <path d="M6.619 10.135a.598.598 0 0 0 .85 0l3.294-3.293a.598.598 0 0 0 0-.851l-.307-.307a.598.598 0 0 0-.851 0l-2.4 2.4c-.084.083-.224.083-.321 0l-.517-.517a.598.598 0 0 0-.85 0l-.308.307a.598.598 0 0 0 0 .852l1.41 1.409z"/>
    </g>
</svg>
