<svg xmlns="http://www.w3.org/2000/svg" width="16" height="16" viewBox="0 0 16 16">
    <path fill="#999" fill-rule="nonzero" d="M14.352 9.099c0-.32-.127-.61-.333-.823.356-.204.596-.588.596-1.028 0-.653-.375-1.092-1.184-1.092h-2.544c-.007-.853 0-2.384 0-3.213 0-.875-.732-.943-.904-.943a.908.908 0 0 0-.322.06.26.26 0 0 0-.136.128c-.058.121-1.416 2.968-1.533 3.23-.119.263-.298.4-.298.4a.269.269 0 0 0-.016.013c-.017.014-1.696 1.447-1.893 1.605-.262.21-.432.48-.432.51v4.982c0 .197.27.595.679.69.175.041 2.129.365 2.3.382h4.047a1.21 1.21 0 0 0 1.184-1.2c0-.297-.11-.57-.29-.777a1.186 1.186 0 0 0 .394-1.85c.404-.189.685-.6.685-1.074zm-9.67-1.77H2.336C2.18 7.293 2 7.49 2 7.644v5.685c0 .155.18.265.335.336h2.348c.155-.071.381-.197.335-.352V7.644c.046-.155-.18-.35-.335-.315z"/>
</svg>
