<?xml version="1.0" encoding="UTF-8"?>
<svg width="32px" height="31px" viewBox="0 0 32 31" version="1.1" xmlns="http://www.w3.org/2000/svg" xmlns:xlink="http://www.w3.org/1999/xlink">
    <!-- Generator: sketchtool 48.1 (47250) - http://www.bohemiancoding.com/sketch -->
    <title>E17689A8-EC2E-4E7F-9F37-7C645011D8B1</title>
    <desc>Created with sketchtool.</desc>
    <defs></defs>
    <g id="Task_Default" stroke="none" stroke-width="1" fill="none" fill-rule="evenodd" transform="translate(-18.000000, -15.000000)">
        <g id="Header" fill="#39C2D7" fill-rule="nonzero">
            <path d="M34.5448091,38.7379584 C34.5448091,38.9199479 34.6166775,39.0942095 34.746118,39.2228772 L36.5111449,40.9886769 C36.6452221,41.122754 36.8210292,41.1899858 36.99645,41.1899858 C37.1722572,41.1899858 37.347678,41.122754 37.4821416,40.9886769 L39.3522664,39.118552 L40.8514574,40.6189022 L40.8522302,40.6189022 L40.8522302,40.619675 L43.2215702,42.9882422 C43.3641479,43.6199889 43.6786689,44.1922317 44.1407906,44.6547398 C44.7895385,45.3038741 45.6515733,45.6605115 46.5684755,45.6605115 C47.4853776,45.6605115 48.3474124,45.3038741 48.9961603,44.6547398 C50.3346132,43.3162868 50.3346132,41.1382096 48.9961603,39.800143 C48.5332657,39.3372484 47.9606366,39.0227274 47.3288899,38.8801497 L44.960709,36.5115825 C44.960709,36.5115825 44.960709,36.5115825 44.960709,36.5108097 C44.9599362,36.5108097 44.9599362,36.5108097 44.9599362,36.5108097 L43.4603589,35.010846 L45.3304837,33.1407211 C45.4591514,33.0120534 45.5310198,32.8377918 45.5310198,32.6561888 C45.5310198,32.4734266 45.4591514,32.2991649 45.3297109,32.1704972 L43.564684,30.4046975 C43.2965297,30.1369297 42.8618416,30.1369297 42.5936874,30.4046975 L40.9094158,32.0889691 L39.8325485,30.5990514 L47.6063175,24.9813355 C47.7682146,24.8642595 47.8709942,24.6834292 47.8883818,24.4852114 L48.6580695,15.746628 C48.6766162,15.54416 48.6032022,15.3443966 48.4598517,15.2010462 C48.3165012,15.0576957 48.1159651,14.9842817 47.9142698,15.0028284 L39.1756864,15.7725161 C38.9766959,15.79029 38.7958656,15.8930696 38.6795624,16.0545804 L34.0007728,22.5289217 L29.3219831,16.0545804 C29.2056799,15.8926832 29.0244633,15.7899037 28.8266319,15.7725161 L20.0880485,15.0028284 C19.8855804,14.9850545 19.6858171,15.0576957 19.5424666,15.2010462 C19.3983434,15.3443966 19.3257021,15.54416 19.3434761,15.746628 L20.1139366,24.4852114 C20.1309377,24.6834292 20.2344901,24.8642595 20.3952281,24.9813355 L28.1701562,30.5990514 L27.0932889,32.0889691 L25.4082446,30.4046975 C25.1408631,30.1369297 24.7065614,30.1369297 24.4380207,30.4046975 L22.672221,32.1704972 C22.5435533,32.2991649 22.4709121,32.4734266 22.4709121,32.6561888 C22.4709121,32.8377918 22.5435533,33.0120534 22.672221,33.1407211 L24.5423459,35.010846 L20.6722693,38.8797634 C20.0405226,39.0223411 19.4682798,39.336862 19.0057717,39.7997566 C18.3570238,40.4477317 18,41.3097665 18,42.2266686 C18,43.1443435 18.3570238,44.0063783 19.0057717,44.6543534 C19.6545195,45.3034877 20.5157816,45.6601251 21.4334565,45.6601251 C22.3503586,45.6601251 23.2123934,45.3034877 23.8603685,44.6543534 C24.3232631,44.1922317 24.6377841,43.6196025 24.7803618,42.9878558 L28.6496655,39.1181656 L30.5197904,40.9882905 C30.6538675,41.1223676 30.8296747,41.1895994 31.0043227,41.1895994 C31.1801299,41.1895994 31.3559371,41.1223676 31.4900142,40.9882905 L33.255814,39.2224908 C33.3844816,39.0938231 33.4571228,38.9195615 33.4571228,38.737572 C33.4571228,38.5548098 33.3844816,38.3809346 33.255814,38.2522669 L31.5715424,36.5672226 L34.0007728,34.8122418 L36.4303895,36.5672226 L34.746118,38.2522669 C34.6166775,38.381321 34.5448091,38.5551962 34.5448091,38.7379584 Z M48.0251636,43.6845159 C47.6360695,44.0739965 47.1183076,44.2880562 46.5680891,44.2880562 C46.0178705,44.2880562 45.5001087,44.0739965 45.1110145,43.6845159 C44.7995846,43.3734724 44.5994349,42.9797416 44.5322031,42.5462127 C44.4313555,41.8970784 44.64812,41.2332614 45.1102417,40.7699805 C45.4993359,40.3808863 46.0170977,40.1664402 46.5673163,40.1664402 C46.6735734,40.1664402 46.7817624,40.1749407 46.8860876,40.1907827 C46.8860876,40.1907827 46.8860876,40.1907827 46.8868603,40.1915555 C47.3207757,40.2587872 47.7145065,40.458937 48.0247772,40.7695941 C48.8288536,41.5736705 48.8288536,42.8808259 48.0251636,43.6845159 Z M45.4494917,38.9802246 C45.4108527,38.9937482 45.3726002,39.0076583 45.3339612,39.0231138 C45.3146417,39.0300688 45.2953223,39.0370239 45.277162,39.0447516 C45.2307952,39.0632983 45.1855877,39.0833906 45.1403801,39.1038692 C45.1299476,39.1088923 45.1187423,39.1131426 45.1083098,39.118552 C45.0518969,39.1448265 44.997416,39.1726465 44.9425487,39.2020121 C44.9301843,39.2081944 44.9182062,39.2155358 44.9062281,39.2228772 C44.8644981,39.2452878 44.8235408,39.2688575 44.7829699,39.2939728 C44.765196,39.3051781 44.7466493,39.3171562 44.7288754,39.3275887 C44.6948731,39.3503857 44.660098,39.3724099 44.6268686,39.3955932 C44.6075491,39.4087305 44.5890024,39.4218677 44.5704557,39.435005 C44.5376126,39.4593475 44.5059287,39.4829173 44.4742447,39.5076462 C44.455698,39.5215562 44.4379241,39.5354662 44.4201502,39.5493762 C44.3869207,39.5760371 44.3540776,39.6038571 44.3216209,39.63245 C44.3069381,39.6448144 44.2914825,39.6575653 44.2767997,39.6710889 C44.2300466,39.7124326 44.1844527,39.7560946 44.1400179,39.8005294 C44.0921056,39.8484417 44.0461252,39.8975131 44.0013041,39.9477437 C43.9870077,39.9639721 43.9738704,39.9809732 43.9599604,39.9979744 C43.9302084,40.0327494 43.9008428,40.0667517 43.8718636,40.1026859 C43.8560216,40.1235509 43.8405661,40.1448024 43.8243377,40.1664402 C43.8003816,40.1988969 43.7756526,40.2305808 43.7524693,40.2634239 C43.7362409,40.2877664 43.7207853,40.312109 43.7053298,40.3360651 C43.6844647,40.3677491 43.6632133,40.3986602 43.6438938,40.4307305 C43.6276655,40.457005 43.6137555,40.4832795 43.5986863,40.509554 C43.5809124,40.5400787 43.5615929,40.5717627 43.5445918,40.6042194 C43.529909,40.6308803 43.5167717,40.6590867 43.5028617,40.6865203 C43.4874061,40.7182043 43.4707914,40.7498882 43.4561086,40.7823449 C43.4429713,40.8105513 43.4313797,40.8399169 43.4182424,40.8685098 C43.4051052,40.9009665 43.3904224,40.9326504 43.3772851,40.9647207 C43.3660798,40.9948591 43.3556473,41.0249975 43.3452148,41.0539767 C43.3343959,41.0833423 43.3228042,41.1115487 43.3135309,41.1405279 L42.3073728,40.1332107 L44.4746311,37.9667251 L45.4780845,38.9701785 C45.4688111,38.9728832 45.4595378,38.9767471 45.4494917,38.9802246 Z M43.5040209,36.9961149 L41.3379217,39.1633732 L40.3221039,38.1483282 L42.4893622,35.9810698 L43.5040209,36.9961149 Z M39.6084426,17.1121283 L47.2191553,16.4413562 L46.5483832,24.0520689 L39.0284721,29.4858635 L37.3986814,27.2316675 L43.316622,21.3144998 C43.5847763,21.0463455 43.5847763,20.6116574 43.316622,20.3435031 C43.0488541,20.0753489 42.614166,20.0753489 42.3456253,20.3435031 L36.5849453,26.1049559 L34.8477384,23.7000681 L39.6084426,17.1121283 Z M20.7823903,16.4413562 L28.3931029,17.1121283 L33.4439856,24.1011403 C33.4439856,24.1019131 33.4439856,24.1019131 33.4447584,24.1026859 L38.3179019,30.8467271 L38.3186747,30.8474998 L39.9260547,33.0719438 L39.1548214,33.8431771 L25.654761,20.3435031 C25.3869932,20.0753489 24.9530778,20.0753489 24.6849236,20.3435031 C24.4167693,20.611271 24.4167693,21.0459591 24.6849236,21.3144998 L38.1838248,34.8141737 L37.4133642,35.5854071 L31.4892415,31.3042121 L29.5298607,29.8880949 C29.5290879,29.8880949 29.5290879,29.8873221 29.5283151,29.8873221 L21.452776,24.0520689 L20.7823903,16.4413562 Z M29.2817986,31.4027414 L30.3667802,32.1863392 L30.44599,32.2431385 L28.8463378,33.8427907 L28.0758772,33.0715574 L29.2817986,31.4027414 Z M23.5273008,37.9667251 L25.6937864,40.1332107 L24.6880147,41.1397551 C24.6787413,41.1123215 24.6671497,41.0848878 24.6571035,41.0574542 C24.646671,41.026543 24.6354657,40.9948591 24.6231013,40.9639479 C24.6111232,40.9326504 24.5972132,40.9017393 24.5836895,40.8708281 C24.5709387,40.8418489 24.5585742,40.8109377 24.5442778,40.7819585 C24.5303678,40.7502746 24.5141394,40.7201362 24.4990703,40.6896115 C24.4851602,40.6610186 24.4712502,40.631653 24.4557946,40.6030602 C24.4395663,40.5721491 24.4210196,40.5423971 24.4040185,40.5122587 C24.3881765,40.4852114 24.3734937,40.4573914 24.3572653,40.4303441 C24.3379459,40.3998194 24.3170808,40.369681 24.2981477,40.339929 C24.2811466,40.3144273 24.2649183,40.2881528 24.2479171,40.2634239 C24.2255065,40.2321264 24.2027096,40.2012152 24.1791398,40.1703041 C24.1621387,40.1478935 24.1459103,40.1243237 24.1281364,40.1019131 C24.1014755,40.0679109 24.0724963,40.0346814 24.0450627,40.0014519 C24.0296071,39.983678 24.0149243,39.9651313 23.9986959,39.9473574 C23.9550339,39.8963539 23.9090536,39.8480553 23.8603685,39.800143 C23.8163201,39.7557082 23.7703398,39.7120462 23.7235867,39.6707025 C23.7085175,39.6567925 23.6930619,39.6448144 23.6776063,39.630518 C23.6459224,39.602698 23.6134657,39.5756507 23.5813953,39.5497626 C23.5628487,39.5350798 23.544302,39.520397 23.5249825,39.5057142 C23.4940713,39.4817581 23.4631602,39.4589611 23.4318626,39.4353914 C23.411384,39.4218677 23.3920645,39.4079577 23.3731314,39.3948205 C23.3402883,39.3724099 23.3070589,39.3503857 23.2730566,39.3295207 C23.2545099,39.3171562 23.2359632,39.3051781 23.2166437,39.2932 C23.1780048,39.2696303 23.1382067,39.2468333 23.0976358,39.2244227 C23.0841121,39.2163085 23.0709749,39.2089671 23.0574513,39.2012394 C23.002584,39.1726465 22.9481031,39.1448265 22.8932358,39.118552 C22.8812577,39.1123698 22.8688932,39.1081195 22.8561424,39.1023237 C22.8124804,39.0822314 22.768432,39.0629119 22.7243836,39.0447516 C22.7042913,39.0370239 22.6849719,39.0300688 22.665266,39.0223411 C22.6273998,39.0076583 22.5899201,38.9937482 22.5512811,38.9809974 C22.541235,38.9767471 22.5319617,38.9728832 22.5219155,38.9701785 L23.5273008,37.9667251 Z M21.4338429,44.2876698 C20.8828516,44.2876698 20.3658625,44.0736101 19.9763819,43.6841296 C19.5869014,43.2942626 19.3728417,42.7772736 19.3728417,42.2266686 C19.3728417,41.6764501 19.5869014,41.1586882 19.9763819,40.7695941 C20.2874254,40.4581642 20.6811563,40.2587872 21.1150716,40.1907827 C21.2201695,40.1749407 21.3275858,40.1664402 21.4346157,40.1664402 C21.9848342,40.1664402 22.5018233,40.3808863 22.8909174,40.7699805 C23.0064479,40.8855109 23.1069091,41.0141786 23.1903692,41.1513468 C23.3793137,41.4612311 23.4840252,41.8170958 23.4925258,42.1806883 C23.4956169,42.3016282 23.4878891,42.4241136 23.4693424,42.5458263 C23.4013379,42.9793552 23.2019609,43.3734724 22.890531,43.6841296 C22.5014369,44.0736101 21.983675,44.2876698 21.4338429,44.2876698 Z M26.6643966,39.1633732 L24.4975247,36.9961149 L25.5129561,35.9810698 L27.6794417,38.1483282 L26.6643966,39.1633732 Z M31.0043227,39.5331479 L29.135357,37.6637958 C29.135357,37.663023 29.135357,37.663023 29.135357,37.663023 L25.9971021,34.5247681 C25.9971021,34.5247681 25.9971021,34.5247681 25.9963293,34.5239953 L24.1269772,32.6558024 L24.9233258,31.8594538 L28.3610326,35.2979333 C28.3610326,35.2979333 28.3610326,35.2979333 28.3618054,35.2979333 C28.3618054,35.2987061 28.3618054,35.2987061 28.3618054,35.2987061 L31.800285,38.7371857 L31.0043227,39.5331479 Z M30.5885677,35.5854071 L29.8173344,34.8141737 L31.573088,33.0580338 L32.82924,33.9660489 L30.5885677,35.5854071 Z M39.6401265,35.2983197 L41.3097153,33.6291174 C41.3097153,33.6291174 41.3104881,33.6291174 41.3104881,33.6279582 L43.0786061,31.8598401 L43.8741819,32.6561888 L42.0056026,34.5236089 C42.0056026,34.5243817 42.0048299,34.5251544 42.0040571,34.5251544 L38.8665749,37.6634094 C38.8665749,37.6634094 38.8665749,37.6634094 38.8658021,37.6641822 L36.99645,39.5335343 L36.2012606,38.7379584 L39.6401265,35.2983197 Z" id="Shape"></path>
        </g>
    </g>
</svg>