<?xml version="1.0" encoding="UTF-8"?>
<svg width="16px" height="16px" viewBox="0 0 16 16" version="1.1" xmlns="http://www.w3.org/2000/svg" xmlns:xlink="http://www.w3.org/1999/xlink">
    <!-- Generator: sketchtool 48.1 (47250) - http://www.bohemiancoding.com/sketch -->
    <title>BEB55642-E374-4FAB-8383-6460ACCA03D4</title>
    <desc>Created with sketchtool.</desc>
    <defs></defs>
    <g id="StatusBar" stroke="none" stroke-width="1" fill="none" fill-rule="evenodd" transform="translate(-459.000000, 0.000000)">
        <g fill="#a6c638" id="State">
            <g transform="translate(459.000000, 0.000000)">
                <g id="Group-20">
                    <path d="M6.28571429,4.71428571 L9.71428571,4.71428571 L9.71428571,3.85714286 L6.28571429,3.85714286 L6.28571429,4.71428571 Z M14,9 L14,12.2142857 C14,12.8035714 13.5178571,13.2857143 12.9285714,13.2857143 L3.07142857,13.2857143 C2.48214286,13.2857143 2,12.8035714 2,12.2142857 L2,9 L6.5,9 L6.5,10.0714286 C6.5,10.3058036 6.69419643,10.5 6.92857143,10.5 L9.07142857,10.5 C9.30580357,10.5 9.5,10.3058036 9.5,10.0714286 L9.5,9 L14,9 Z M8.85714286,9 L8.85714286,9.85714286 L7.14285714,9.85714286 L7.14285714,9 L8.85714286,9 Z M14,5.78571429 L14,8.35714286 L2,8.35714286 L2,5.78571429 C2,5.19642857 2.48214286,4.71428571 3.07142857,4.71428571 L5.42857143,4.71428571 L5.42857143,3.64285714 C5.42857143,3.28794643 5.71651786,3 6.07142857,3 L9.92857143,3 C10.2834821,3 10.5714286,3.28794643 10.5714286,3.64285714 L10.5714286,4.71428571 L12.9285714,4.71428571 C13.5178571,4.71428571 14,5.19642857 14,5.78571429 Z" id="Briefcase---FontAwesome"></path>
                </g>
            </g>
        </g>
    </g>
</svg>