<svg xmlns="http://www.w3.org/2000/svg" width="32" height="31" viewBox="0 0 32 31">
    <path fill="#39C2D7" fill-rule="nonzero" d="M16.545 23.738c0 .182.072.356.201.485l1.765 1.766a.685.685 0 0 0 .971 0l1.87-1.87 1.5 1.5 2.37 2.37c.142.631.457 1.203.919 1.666a3.409 3.409 0 0 0 2.427 1.006c.917 0 1.78-.357 2.428-1.006a3.437 3.437 0 0 0 0-4.855 3.407 3.407 0 0 0-1.667-.92l-2.368-2.368v-.001h-.001l-1.5-1.5 1.87-1.87a.685.685 0 0 0 0-.97l-1.765-1.766a.687.687 0 0 0-.971 0l-1.685 1.684-1.076-1.49 7.773-5.618a.686.686 0 0 0 .282-.496l.77-8.738a.684.684 0 0 0-.744-.744l-8.738.77a.686.686 0 0 0-.496.282L16 7.529l-4.678-6.474a.684.684 0 0 0-.495-.282L2.088.003a.687.687 0 0 0-.745.744l.77 8.738c.018.198.121.38.282.496L10.17 15.6l-1.077 1.49-1.685-1.684a.686.686 0 0 0-.97 0L4.672 17.17a.686.686 0 0 0 0 .97l1.87 1.87-3.87 3.87a3.403 3.403 0 0 0-1.666.92A3.407 3.407 0 0 0 0 27.227c0 .917.357 1.78 1.006 2.427a3.408 3.408 0 0 0 2.427 1.006c.917 0 1.78-.357 2.427-1.006a3.4 3.4 0 0 0 .92-1.666l3.87-3.87 1.87 1.87a.684.684 0 0 0 .97 0l1.766-1.766a.686.686 0 0 0 0-.97l-1.684-1.685L16 19.812l2.43 1.755-1.685 1.685a.684.684 0 0 0-.201.486zm13.48 4.947c-.389.389-.907.603-1.457.603s-1.068-.214-1.457-.603a2.041 2.041 0 0 1-.579-1.139c-.1-.649.116-1.313.578-1.776a2.048 2.048 0 0 1 1.776-.58v.002a2.063 2.063 0 0 1 1.138 3.493zM27.45 23.98a2.795 2.795 0 0 0-.172.065 3.315 3.315 0 0 0-.137.059l-.032.015a3.323 3.323 0 0 0-.325.175l-.054.034c-.034.022-.069.044-.102.068a3.567 3.567 0 0 0-.153.112l-.054.041a2.803 2.803 0 0 0-.098.083l-.045.04a3.08 3.08 0 0 0-.276.276l-.041.05c-.03.035-.06.069-.088.105l-.048.063-.072.097c-.016.025-.031.05-.047.073-.02.032-.042.063-.061.095-.016.026-.03.052-.045.079-.018.03-.037.062-.054.094-.015.027-.028.055-.042.083l-.047.095-.038.087c-.013.032-.028.064-.04.096l-.033.089c-.01.03-.022.058-.031.087l-1.007-1.008 2.168-2.166 1.003 1.003-.029.01zm-1.945-1.984l-2.166 2.167-1.016-1.015 2.167-2.167 1.015 1.015zM21.608 2.112l7.611-.67-.67 7.61-7.52 5.434-1.63-2.254 5.918-5.918a.687.687 0 1 0-.971-.97l-5.761 5.761L16.848 8.7l4.76-6.588zm-18.826-.67l7.611.67 5.051 6.99 4.874 6.745 1.608 2.225-.771.771-13.5-13.5a.685.685 0 1 0-.97.971l13.499 13.5-.77.771-5.925-4.28-1.96-1.417-8.076-5.836-.67-7.61zm8.5 14.96l1.085.784.079.057-1.6 1.6-.77-.771 1.206-1.67zm-5.755 6.565l2.167 2.166-1.006 1.007-.03-.083a1.818 1.818 0 0 0-.035-.093c-.012-.031-.026-.062-.04-.093-.012-.03-.024-.06-.039-.089-.014-.032-.03-.062-.045-.092l-.043-.087c-.016-.03-.035-.06-.052-.09-.016-.028-.03-.056-.047-.083l-.059-.09-.05-.077a3.845 3.845 0 0 0-.069-.093l-.05-.068-.084-.1L6 24.946a2.881 2.881 0 0 0-.275-.277l-.046-.04a3.043 3.043 0 0 0-.153-.124c-.03-.024-.062-.047-.093-.07l-.059-.041a2.47 2.47 0 0 0-.156-.102 3.197 3.197 0 0 0-.12-.069l-.04-.023a5.442 5.442 0 0 0-.164-.082c-.012-.007-.024-.01-.037-.017a3.58 3.58 0 0 0-.132-.057l-.059-.023a2.357 2.357 0 0 0-.143-.052l1.005-1.003zm-2.093 6.32a2.046 2.046 0 0 1-1.458-.603 2.048 2.048 0 0 1-.603-1.457c0-.55.214-1.068.603-1.457a2.046 2.046 0 0 1 1.459-.604 2.046 2.046 0 0 1 1.755.985 2.073 2.073 0 0 1 .28 1.395 2.045 2.045 0 0 1-.58 1.138c-.389.39-.906.604-1.456.604zm5.23-5.124l-2.166-2.167 1.015-1.015 2.166 2.167-1.015 1.015zm4.34.37l-1.869-1.87-3.138-3.138v-.001l-1.87-1.868.796-.797 3.438 3.439 3.44 3.44-.797.795zm-.415-3.948l-.772-.77 1.756-1.757 1.256.908-2.24 1.62zm9.051-.287l1.67-1.669v-.001l1.769-1.768.795.796-1.868 1.868-.002.001-3.137 3.138-.001.001-1.87 1.87-.795-.796 3.44-3.44z"/>
</svg>
